<svg width="1280" height="400" viewBox="0 0 1280 400" xmlns="http://www.w3.org/2000/svg">
  <defs>
    <!-- Background gradient -->
    <linearGradient id="bgGrad" x1="0%" y1="0%" x2="100%" y2="100%">
      <stop offset="0%" style="stop-color:#0a0010"/>
      <stop offset="50%" style="stop-color:#0d000d"/>
      <stop offset="100%" style="stop-color:#080008"/>
    </linearGradient>

    <!-- Red glow filter -->
    <filter id="redGlow" x="-50%" y="-50%" width="200%" height="200%">
      <feGaussianBlur stdDeviation="4" result="blur"/>
      <feComposite in="SourceGraphic" in2="blur" operator="over"/>
    </filter>
    <filter id="strongGlow" x="-80%" y="-80%" width="260%" height="260%">
      <feGaussianBlur stdDeviation="10" result="blur1"/>
      <feGaussianBlur stdDeviation="20" result="blur2"/>
      <feMerge><feMergeNode in="blur2"/><feMergeNode in="blur1"/><feMergeNode in="SourceGraphic"/></feMerge>
    </filter>
    <filter id="softGlow">
      <feGaussianBlur stdDeviation="3" result="blur"/>
      <feMerge><feMergeNode in="blur"/><feMergeNode in="SourceGraphic"/></feMerge>
    </filter>
    <filter id="dotGlow">
      <feGaussianBlur stdDeviation="1.5" result="blur"/>
      <feMerge><feMergeNode in="blur"/><feMergeNode in="SourceGraphic"/></feMerge>
    </filter>

    <!-- Clip for scan lines -->
    <clipPath id="clip"><rect width="1280" height="400"/></clipPath>
  </defs>

  <!-- ── Background ── -->
  <rect width="1280" height="400" fill="url(#bgGrad)"/>

  <!-- ── Grid panels ── -->
  <!-- Panel 1 top-left -->
  <g opacity="0.55" clip-path="url(#clip)">
    <animateTransform attributeName="transform" type="translate" values="0,0;0,0;3,0;0,0;0,0" dur="7s" repeatCount="indefinite"/>
    <rect x="18" y="20" width="290" height="220" fill="none" stroke="#ff1a3c" stroke-width="1"/>
    <line x1="18" y1="55" x2="308" y2="55" stroke="#ff1a3c" stroke-width="0.6"/>
    <line x1="18" y1="90" x2="308" y2="90" stroke="#ff1a3c" stroke-width="0.6"/>
    <line x1="18" y1="125" x2="308" y2="125" stroke="#ff1a3c" stroke-width="0.6"/>
    <line x1="18" y1="160" x2="308" y2="160" stroke="#ff1a3c" stroke-width="0.6"/>
    <line x1="18" y1="195" x2="308" y2="195" stroke="#ff1a3c" stroke-width="0.6"/>
    <line x1="55" y1="20" x2="55" y2="240" stroke="#ff1a3c" stroke-width="0.6"/>
    <line x1="92" y1="20" x2="92" y2="240" stroke="#ff1a3c" stroke-width="0.6"/>
    <line x1="129" y1="20" x2="129" y2="240" stroke="#ff1a3c" stroke-width="0.6"/>
    <line x1="166" y1="20" x2="166" y2="240" stroke="#ff1a3c" stroke-width="0.6"/>
    <line x1="203" y1="20" x2="203" y2="240" stroke="#ff1a3c" stroke-width="0.6"/>
    <line x1="240" y1="20" x2="240" y2="240" stroke="#ff1a3c" stroke-width="0.6"/>
    <line x1="277" y1="20" x2="277" y2="240" stroke="#ff1a3c" stroke-width="0.6"/>
    <animate attributeName="opacity" values="0.55;0.7;0.55;0.3;0.55" dur="4s" repeatCount="indefinite"/>
  </g>

  <!-- Panel 2 top-right -->
  <g opacity="0.5">
    <rect x="970" y="15" width="295" height="250" fill="none" stroke="#ff2d6f" stroke-width="1"/>
    <line x1="970" y1="50" x2="1265" y2="50" stroke="#ff2d6f" stroke-width="0.6"/>
    <line x1="970" y1="90" x2="1265" y2="90" stroke="#ff2d6f" stroke-width="0.6"/>
    <line x1="970" y1="130" x2="1265" y2="130" stroke="#ff2d6f" stroke-width="0.6"/>
    <line x1="970" y1="170" x2="1265" y2="170" stroke="#ff2d6f" stroke-width="0.6"/>
    <line x1="970" y1="210" x2="1265" y2="210" stroke="#ff2d6f" stroke-width="0.6"/>
    <line x1="1010" y1="15" x2="1010" y2="265" stroke="#ff2d6f" stroke-width="0.6"/>
    <line x1="1050" y1="15" x2="1050" y2="265" stroke="#ff2d6f" stroke-width="0.6"/>
    <line x1="1090" y1="15" x2="1090" y2="265" stroke="#ff2d6f" stroke-width="0.6"/>
    <line x1="1130" y1="15" x2="1130" y2="265" stroke="#ff2d6f" stroke-width="0.6"/>
    <line x1="1170" y1="15" x2="1170" y2="265" stroke="#ff2d6f" stroke-width="0.6"/>
    <line x1="1210" y1="15" x2="1210" y2="265" stroke="#ff2d6f" stroke-width="0.6"/>
    <line x1="1250" y1="15" x2="1250" y2="265" stroke="#ff2d6f" stroke-width="0.6"/>
    <animate attributeName="opacity" values="0.5;0.65;0.5;0.25;0.5" dur="5s" repeatCount="indefinite"/>
  </g>

  <!-- Panel 3 bottom-left -->
  <g opacity="0.45">
    <rect x="10" y="270" width="260" height="115" fill="none" stroke="#ff1a3c" stroke-width="1"/>
    <line x1="10" y1="305" x2="270" y2="305" stroke="#ff1a3c" stroke-width="0.6"/>
    <line x1="10" y1="340" x2="270" y2="340" stroke="#ff1a3c" stroke-width="0.6"/>
    <line x1="10" y1="375" x2="270" y2="375" stroke="#ff1a3c" stroke-width="0.6"/>
    <line x1="53" y1="270" x2="53" y2="385" stroke="#ff1a3c" stroke-width="0.6"/>
    <line x1="96" y1="270" x2="96" y2="385" stroke="#ff1a3c" stroke-width="0.6"/>
    <line x1="139" y1="270" x2="139" y2="385" stroke="#ff1a3c" stroke-width="0.6"/>
    <line x1="182" y1="270" x2="182" y2="385" stroke="#ff1a3c" stroke-width="0.6"/>
    <line x1="225" y1="270" x2="225" y2="385" stroke="#ff1a3c" stroke-width="0.6"/>
    <animate attributeName="opacity" values="0.45;0.6;0.45;0.2;0.45" dur="6s" repeatCount="indefinite"/>
  </g>

  <!-- Panel 4 bottom-right -->
  <g opacity="0.4">
    <rect x="1010" y="270" width="260" height="115" fill="none" stroke="#ff2d6f" stroke-width="1"/>
    <line x1="1010" y1="305" x2="1270" y2="305" stroke="#ff2d6f" stroke-width="0.6"/>
    <line x1="1010" y1="340" x2="1270" y2="340" stroke="#ff2d6f" stroke-width="0.6"/>
    <line x1="1053" y1="270" x2="1053" y2="385" stroke="#ff2d6f" stroke-width="0.6"/>
    <line x1="1096" y1="270" x2="1096" y2="385" stroke="#ff2d6f" stroke-width="0.6"/>
    <line x1="1139" y1="270" x2="1139" y2="385" stroke="#ff2d6f" stroke-width="0.6"/>
    <line x1="1182" y1="270" x2="1182" y2="385" stroke="#ff2d6f" stroke-width="0.6"/>
    <line x1="1225" y1="270" x2="1225" y2="385" stroke="#ff2d6f" stroke-width="0.6"/>
    <animate attributeName="opacity" values="0.4;0.6;0.4;0.15;0.4" dur="3.5s" repeatCount="indefinite"/>
  </g>

  <!-- ── Dot matrix fields ── -->
  <!-- Left dot field -->
  <g filter="url(#dotGlow)">
    <animate attributeName="opacity" values="0.5;0.8;0.5;0.3;0.5" dur="3s" repeatCount="indefinite"/>
    <!-- row 1 -->
    <rect x="25" y="30" width="2" height="2" fill="#ff1a3c"/><rect x="33" y="30" width="2" height="2" fill="#ff1a3c"/>
    <rect x="41" y="30" width="2" height="2" fill="#ff1a3c"/><rect x="49" y="30" width="2" height="2" fill="#ff2d6f"/>
    <rect x="57" y="30" width="2" height="2" fill="#ff1a3c"/><rect x="65" y="30" width="2" height="2" fill="#ff1a3c"/>
    <!-- row 2 -->
    <rect x="25" y="38" width="2" height="2" fill="#ff2d6f"/><rect x="33" y="38" width="2" height="2" fill="#ff1a3c"/>
    <rect x="41" y="38" width="2" height="2" fill="#ff1a3c"/><rect x="49" y="38" width="2" height="2" fill="#ff1a3c"/>
    <rect x="57" y="38" width="2" height="2" fill="#ff2d6f"/><rect x="65" y="38" width="2" height="2" fill="#ff1a3c"/>
    <!-- row 3 -->
    <rect x="25" y="46" width="2" height="2" fill="#ff1a3c"/><rect x="33" y="46" width="2" height="2" fill="#ff2d6f"/>
    <rect x="41" y="46" width="2" height="2" fill="#ff1a3c"/><rect x="49" y="46" width="2" height="2" fill="#ff1a3c"/>
    <rect x="57" y="46" width="2" height="2" fill="#ff1a3c"/><rect x="65" y="46" width="2" height="2" fill="#ff2d6f"/>
    <!-- row 4 -->
    <rect x="25" y="54" width="2" height="2" fill="#ff1a3c"/><rect x="33" y="54" width="2" height="2" fill="#ff1a3c"/>
    <rect x="41" y="54" width="2" height="2" fill="#ff2d6f"/><rect x="49" y="54" width="2" height="2" fill="#ff1a3c"/>
    <rect x="57" y="54" width="2" height="2" fill="#ff1a3c"/><rect x="65" y="54" width="2" height="2" fill="#ff1a3c"/>
  </g>

  <!-- Right dot field -->
  <g filter="url(#dotGlow)">
    <animate attributeName="opacity" values="0.4;0.7;0.4;0.2;0.4" dur="4s" repeatCount="indefinite"/>
    <rect x="1190" y="30" width="2" height="2" fill="#ff2d6f"/><rect x="1198" y="30" width="2" height="2" fill="#ff1a3c"/>
    <rect x="1206" y="30" width="2" height="2" fill="#ff2d6f"/><rect x="1214" y="30" width="2" height="2" fill="#ff1a3c"/>
    <rect x="1222" y="30" width="2" height="2" fill="#ff1a3c"/><rect x="1230" y="30" width="2" height="2" fill="#ff2d6f"/>
    <rect x="1190" y="38" width="2" height="2" fill="#ff1a3c"/><rect x="1198" y="38" width="2" height="2" fill="#ff2d6f"/>
    <rect x="1206" y="38" width="2" height="2" fill="#ff1a3c"/><rect x="1214" y="38" width="2" height="2" fill="#ff2d6f"/>
    <rect x="1222" y="38" width="2" height="2" fill="#ff1a3c"/><rect x="1230" y="38" width="2" height="2" fill="#ff1a3c"/>
    <rect x="1190" y="46" width="2" height="2" fill="#ff2d6f"/><rect x="1198" y="46" width="2" height="2" fill="#ff1a3c"/>
    <rect x="1206" y="46" width="2" height="2" fill="#ff1a3c"/><rect x="1214" y="46" width="2" height="2" fill="#ff1a3c"/>
    <rect x="1222" y="46" width="2" height="2" fill="#ff2d6f"/><rect x="1230" y="46" width="2" height="2" fill="#ff1a3c"/>
  </g>

  <!-- ── Flare bursts ── -->
  <circle cx="60" cy="80" r="0" fill="#ff1a3c" opacity="0.7" filter="url(#strongGlow)">
    <animate attributeName="r" values="0;80;0" dur="5s" repeatCount="indefinite" begin="0s"/>
    <animate attributeName="opacity" values="0.7;0;0" dur="5s" repeatCount="indefinite" begin="0s"/>
  </circle>
  <circle cx="1220" cy="120" r="0" fill="#ff2d6f" opacity="0.6" filter="url(#strongGlow)">
    <animate attributeName="r" values="0;100;0" dur="6s" repeatCount="indefinite" begin="2s"/>
    <animate attributeName="opacity" values="0.6;0;0" dur="6s" repeatCount="indefinite" begin="2s"/>
  </circle>
  <circle cx="150" cy="330" r="0" fill="#ff1a3c" opacity="0.5" filter="url(#strongGlow)">
    <animate attributeName="r" values="0;70;0" dur="7s" repeatCount="indefinite" begin="3.5s"/>
    <animate attributeName="opacity" values="0.5;0;0" dur="7s" repeatCount="indefinite" begin="3.5s"/>
  </circle>

  <!-- ── Scanlines ── -->
  <g opacity="0.08" clip-path="url(#clip)">
    <rect x="0" y="0" width="1280" height="1" fill="#ffffff"/>
    <rect x="0" y="4" width="1280" height="1" fill="#ffffff"/>
    <rect x="0" y="8" width="1280" height="1" fill="#ffffff"/>
    <rect x="0" y="12" width="1280" height="1" fill="#ffffff"/>
    <rect x="0" y="16" width="1280" height="1" fill="#ffffff"/>
    <rect x="0" y="20" width="1280" height="1" fill="#ffffff"/>
    <rect x="0" y="24" width="1280" height="1" fill="#ffffff"/>
    <rect x="0" y="28" width="1280" height="1" fill="#ffffff"/>
    <rect x="0" y="32" width="1280" height="1" fill="#ffffff"/>
    <rect x="0" y="36" width="1280" height="1" fill="#ffffff"/>
    <rect x="0" y="40" width="1280" height="1" fill="#ffffff"/>
    <rect x="0" y="44" width="1280" height="1" fill="#ffffff"/>
    <rect x="0" y="48" width="1280" height="1" fill="#ffffff"/>
    <rect x="0" y="52" width="1280" height="1" fill="#ffffff"/>
    <rect x="0" y="56" width="1280" height="1" fill="#ffffff"/>
    <rect x="0" y="60" width="1280" height="1" fill="#ffffff"/>
    <rect x="0" y="64" width="1280" height="1" fill="#ffffff"/>
    <rect x="0" y="68" width="1280" height="1" fill="#ffffff"/>
    <rect x="0" y="72" width="1280" height="1" fill="#ffffff"/>
    <rect x="0" y="76" width="1280" height="1" fill="#ffffff"/>
    <rect x="0" y="80" width="1280" height="1" fill="#ffffff"/>
    <rect x="0" y="84" width="1280" height="1" fill="#ffffff"/>
    <rect x="0" y="88" width="1280" height="1" fill="#ffffff"/>
    <rect x="0" y="92" width="1280" height="1" fill="#ffffff"/>
    <rect x="0" y="96" width="1280" height="1" fill="#ffffff"/>
    <rect x="0" y="100" width="1280" height="1" fill="#ffffff"/>
    <rect x="0" y="104" width="1280" height="1" fill="#ffffff"/>
    <rect x="0" y="108" width="1280" height="1" fill="#ffffff"/>
    <rect x="0" y="112" width="1280" height="1" fill="#ffffff"/>
    <rect x="0" y="116" width="1280" height="1" fill="#ffffff"/>
    <rect x="0" y="120" width="1280" height="1" fill="#ffffff"/>
    <rect x="0" y="124" width="1280" height="1" fill="#ffffff"/>
    <rect x="0" y="128" width="1280" height="1" fill="#ffffff"/>
    <rect x="0" y="132" width="1280" height="1" fill="#ffffff"/>
    <rect x="0" y="136" width="1280" height="1" fill="#ffffff"/>
    <rect x="0" y="140" width="1280" height="1" fill="#ffffff"/>
    <rect x="0" y="144" width="1280" height="1" fill="#ffffff"/>
    <rect x="0" y="148" width="1280" height="1" fill="#ffffff"/>
    <rect x="0" y="152" width="1280" height="1" fill="#ffffff"/>
    <rect x="0" y="156" width="1280" height="1" fill="#ffffff"/>
    <rect x="0" y="160" width="1280" height="1" fill="#ffffff"/>
    <rect x="0" y="164" width="1280" height="1" fill="#ffffff"/>
    <rect x="0" y="168" width="1280" height="1" fill="#ffffff"/>
    <rect x="0" y="172" width="1280" height="1" fill="#ffffff"/>
    <rect x="0" y="176" width="1280" height="1" fill="#ffffff"/>
    <rect x="0" y="180" width="1280" height="1" fill="#ffffff"/>
    <rect x="0" y="184" width="1280" height="1" fill="#ffffff"/>
    <rect x="0" y="188" width="1280" height="1" fill="#ffffff"/>
    <rect x="0" y="192" width="1280" height="1" fill="#ffffff"/>
    <rect x="0" y="196" width="1280" height="1" fill="#ffffff"/>
    <rect x="0" y="200" width="1280" height="1" fill="#ffffff"/>
    <rect x="0" y="204" width="1280" height="1" fill="#ffffff"/>
    <rect x="0" y="208" width="1280" height="1" fill="#ffffff"/>
    <rect x="0" y="212" width="1280" height="1" fill="#ffffff"/>
    <rect x="0" y="216" width="1280" height="1" fill="#ffffff"/>
    <rect x="0" y="220" width="1280" height="1" fill="#ffffff"/>
    <rect x="0" y="224" width="1280" height="1" fill="#ffffff"/>
    <rect x="0" y="228" width="1280" height="1" fill="#ffffff"/>
    <rect x="0" y="232" width="1280" height="1" fill="#ffffff"/>
    <rect x="0" y="236" width="1280" height="1" fill="#ffffff"/>
    <rect x="0" y="240" width="1280" height="1" fill="#ffffff"/>
    <rect x="0" y="244" width="1280" height="1" fill="#ffffff"/>
    <rect x="0" y="248" width="1280" height="1" fill="#ffffff"/>
    <rect x="0" y="252" width="1280" height="1" fill="#ffffff"/>
    <rect x="0" y="256" width="1280" height="1" fill="#ffffff"/>
    <rect x="0" y="260" width="1280" height="1" fill="#ffffff"/>
    <rect x="0" y="264" width="1280" height="1" fill="#ffffff"/>
    <rect x="0" y="268" width="1280" height="1" fill="#ffffff"/>
    <rect x="0" y="272" width="1280" height="1" fill="#ffffff"/>
    <rect x="0" y="276" width="1280" height="1" fill="#ffffff"/>
    <rect x="0" y="280" width="1280" height="1" fill="#ffffff"/>
    <rect x="0" y="284" width="1280" height="1" fill="#ffffff"/>
    <rect x="0" y="288" width="1280" height="1" fill="#ffffff"/>
    <rect x="0" y="292" width="1280" height="1" fill="#ffffff"/>
    <rect x="0" y="296" width="1280" height="1" fill="#ffffff"/>
    <rect x="0" y="300" width="1280" height="1" fill="#ffffff"/>
    <rect x="0" y="304" width="1280" height="1" fill="#ffffff"/>
    <rect x="0" y="308" width="1280" height="1" fill="#ffffff"/>
    <rect x="0" y="312" width="1280" height="1" fill="#ffffff"/>
    <rect x="0" y="316" width="1280" height="1" fill="#ffffff"/>
    <rect x="0" y="320" width="1280" height="1" fill="#ffffff"/>
    <rect x="0" y="324" width="1280" height="1" fill="#ffffff"/>
    <rect x="0" y="328" width="1280" height="1" fill="#ffffff"/>
    <rect x="0" y="332" width="1280" height="1" fill="#ffffff"/>
    <rect x="0" y="336" width="1280" height="1" fill="#ffffff"/>
    <rect x="0" y="340" width="1280" height="1" fill="#ffffff"/>
    <rect x="0" y="344" width="1280" height="1" fill="#ffffff"/>
    <rect x="0" y="348" width="1280" height="1" fill="#ffffff"/>
    <rect x="0" y="352" width="1280" height="1" fill="#ffffff"/>
    <rect x="0" y="356" width="1280" height="1" fill="#ffffff"/>
    <rect x="0" y="360" width="1280" height="1" fill="#ffffff"/>
    <rect x="0" y="364" width="1280" height="1" fill="#ffffff"/>
    <rect x="0" y="368" width="1280" height="1" fill="#ffffff"/>
    <rect x="0" y="372" width="1280" height="1" fill="#ffffff"/>
    <rect x="0" y="376" width="1280" height="1" fill="#ffffff"/>
    <rect x="0" y="380" width="1280" height="1" fill="#ffffff"/>
    <rect x="0" y="384" width="1280" height="1" fill="#ffffff"/>
    <rect x="0" y="388" width="1280" height="1" fill="#ffffff"/>
    <rect x="0" y="392" width="1280" height="1" fill="#ffffff"/>
    <rect x="0" y="396" width="1280" height="1" fill="#ffffff"/>
  </g>

  <!-- ── Tagline ── -->
  <text x="640" y="148" text-anchor="middle"
    font-family="'Courier New', monospace" font-size="15" letter-spacing="6"
    fill="#ff1a3c" opacity="0">
    // FULL-STACK DEVELOPER &amp; AIML ENTHUSIAST
    <animate attributeName="opacity" values="0;0;0.7;0.7;0.4;0.7" dur="4s" fill="freeze"/>
  </text>

  <!-- ── Main Name – shadow layer ── -->
  <text x="643" y="230" text-anchor="middle"
    font-family="'Arial Black', 'Impact', sans-serif" font-size="88" font-weight="900"
    letter-spacing="10" fill="#ff1a3c" opacity="0" filter="url(#strongGlow)">
    ROHITH KUMAR
    <animate attributeName="opacity" values="0;0;0.35;0.35" dur="4s" fill="freeze"/>
  </text>

  <!-- ── Main Name – glitch layer 1 ── -->
  <text x="638" y="228" text-anchor="middle"
    font-family="'Arial Black', 'Impact', sans-serif" font-size="88" font-weight="900"
    letter-spacing="10" fill="#ff2d6f" opacity="0" clip-path="url(#clip)">
    ROHITH KUMAR
    <animate attributeName="opacity" values="0;0;0;0;0;0.6;0;0;0;0;0.5;0" dur="6s" repeatCount="indefinite" begin="4s"/>
    <animateTransform attributeName="transform" type="translate" values="0,0;0,0;0,0;0,0;0,0;4,-3;0,0;0,0;-3,2;0,0" dur="6s" repeatCount="indefinite" begin="4s"/>
  </text>

  <!-- ── Main Name – glitch layer 2 ── -->
  <text x="645" y="232" text-anchor="middle"
    font-family="'Arial Black', 'Impact', sans-serif" font-size="88" font-weight="900"
    letter-spacing="10" fill="#7b2fff" opacity="0" clip-path="url(#clip)">
    ROHITH KUMAR
    <animate attributeName="opacity" values="0;0;0;0;0;0;0.4;0;0;0;0;0.3;0" dur="7s" repeatCount="indefinite" begin="4.5s"/>
    <animateTransform attributeName="transform" type="translate" values="0,0;0,0;0,0;0,0;0,0;0,0;-5,3;0,0;5,-2;0,0" dur="7s" repeatCount="indefinite" begin="4.5s"/>
  </text>

  <!-- ── Main Name – primary ── -->
  <text x="640" y="230" text-anchor="middle"
    font-family="'Arial Black', 'Impact', sans-serif" font-size="88" font-weight="900"
    letter-spacing="10" fill="white" opacity="0" filter="url(#softGlow)">
    ROHITH KUMAR
    <animate attributeName="opacity" values="0;0;0;1;1;1;0.9;1;1;1" dur="4s" fill="freeze"/>
    <animate attributeName="opacity" values="1;1;1;0.1;1;1;1;0.05;1" dur="8s" repeatCount="indefinite" begin="4s"/>
  </text>

  <!-- ── Decorative rule lines ── -->
  <g opacity="0">
    <animate attributeName="opacity" values="0;0;0;0;0.8;0.8" dur="4s" fill="freeze"/>
    <!-- left line -->
    <line x1="100" y1="248" x2="440" y2="248" stroke="#ff1a3c" stroke-width="1">
      <animate attributeName="opacity" values="0.8;1;0.8;0.4;0.8" dur="3s" repeatCount="indefinite"/>
    </line>
    <!-- right line -->
    <line x1="840" y1="248" x2="1180" y2="248" stroke="#ff1a3c" stroke-width="1">
      <animate attributeName="opacity" values="0.8;0.4;0.8;1;0.8" dur="3s" repeatCount="indefinite"/>
    </line>
    <!-- diamonds -->
    <polygon points="460,244 468,248 460,252 452,248" fill="#ff1a3c" filter="url(#redGlow)"/>
    <polygon points="820,244 828,248 820,252 812,248" fill="#ff1a3c" filter="url(#redGlow)"/>
    <!-- github handle -->
    <text x="640" y="252" text-anchor="middle"
      font-family="'Courier New', monospace" font-size="12" letter-spacing="3"
      fill="#ff1a3c" opacity="0.7">github.com/rohithkumar086</text>
  </g>

  <!-- ── Footer bar ── -->
  <rect x="0" y="360" width="1280" height="40" fill="rgba(8,0,8,0.85)"/>
  <line x1="0" y1="360" x2="1280" y2="360" stroke="#ff1a3c" stroke-width="0.8" opacity="0.4"/>

  <g opacity="0">
    <animate attributeName="opacity" values="0;0;0;0;0;1" dur="5s" fill="freeze"/>
    <!-- left status -->
    <text x="24" y="385"
      font-family="'Courier New', monospace" font-size="11" letter-spacing="3"
      fill="#ff1a3c" opacity="0.5">SYS://GRID.ACTIVE | v2.0.26</text>
    <!-- center github -->
    <text x="640" y="385" text-anchor="middle"
      font-family="'Courier New', monospace" font-size="12" letter-spacing="4"
      fill="white" opacity="0.6">⌥ GITHUB: rohithkumar086</text>
    <!-- right copyright -->
    <text x="1256" y="385" text-anchor="end"
      font-family="'Courier New', monospace" font-size="11" letter-spacing="2"
      fill="#ff1a3c" opacity="0.5">© 2026 ROHITH KUMAR</text>
  </g>

  <!-- ── Vignette ── -->
  <radialGradient id="vignette" cx="50%" cy="50%" r="70%">
    <stop offset="40%" stop-color="transparent"/>
    <stop offset="100%" stop-color="#050005" stop-opacity="0.75"/>
  </radialGradient>
  <rect width="1280" height="400" fill="url(#vignette)"/>
</svg>
